<mxfile host="app.diagrams.net" modified="2023-04-14T06:08:53.910Z" agent="Mozilla/5.0 (Windows NT 10.0; Win64; x64) AppleWebKit/537.36 (KHTML, like Gecko) Chrome/111.0.0.0 Safari/537.36" etag="CumaSYoFzoVg1V3jA49Q" version="21.1.4" type="github">
  <diagram name="第 1 页" id="57kdDWtFS_ZoskgRK_DC">
    <mxGraphModel dx="811" dy="450" grid="1" gridSize="10" guides="1" tooltips="1" connect="1" arrows="1" fold="1" page="1" pageScale="1" pageWidth="827" pageHeight="1169" math="0" shadow="0">
      <root>
        <mxCell id="0" />
        <mxCell id="1" parent="0" />
        <mxCell id="eUDPr7Cqio48zAzTeAPv-1" value="ActivityRecord" style="shape=umlLifeline;perimeter=lifelinePerimeter;whiteSpace=wrap;html=1;container=0;dropTarget=0;collapsible=0;recursiveResize=0;outlineConnect=0;portConstraint=eastwest;newEdgeStyle={&quot;edgeStyle&quot;:&quot;elbowEdgeStyle&quot;,&quot;elbow&quot;:&quot;vertical&quot;,&quot;curved&quot;:0,&quot;rounded&quot;:0};" vertex="1" parent="1">
          <mxGeometry x="70" y="30" width="110" height="540" as="geometry" />
        </mxCell>
        <mxCell id="eUDPr7Cqio48zAzTeAPv-2" value="" style="html=1;points=[];perimeter=orthogonalPerimeter;outlineConnect=0;targetShapes=umlLifeline;portConstraint=eastwest;newEdgeStyle={&quot;edgeStyle&quot;:&quot;elbowEdgeStyle&quot;,&quot;elbow&quot;:&quot;vertical&quot;,&quot;curved&quot;:0,&quot;rounded&quot;:0};" vertex="1" parent="eUDPr7Cqio48zAzTeAPv-1">
          <mxGeometry x="45" y="65" width="22" height="190" as="geometry" />
        </mxCell>
        <mxCell id="eUDPr7Cqio48zAzTeAPv-3" value="1.setRequested&lt;br&gt;Orientation" style="html=1;verticalAlign=bottom;startArrow=oval;endArrow=block;startSize=8;edgeStyle=elbowEdgeStyle;elbow=vertical;curved=0;rounded=0;" edge="1" parent="eUDPr7Cqio48zAzTeAPv-1">
          <mxGeometry relative="1" as="geometry">
            <mxPoint x="-43" y="87" as="sourcePoint" />
            <mxPoint x="43.5" y="87" as="targetPoint" />
          </mxGeometry>
        </mxCell>
        <mxCell id="eUDPr7Cqio48zAzTeAPv-6" value="应用主动&lt;br&gt;请求旋转" style="text;html=1;align=center;verticalAlign=middle;resizable=0;points=[];autosize=1;strokeColor=none;fillColor=none;" vertex="1" parent="1">
          <mxGeometry width="70" height="40" as="geometry" />
        </mxCell>
        <mxCell id="eUDPr7Cqio48zAzTeAPv-8" value="WindowContainer" style="shape=umlLifeline;perimeter=lifelinePerimeter;whiteSpace=wrap;html=1;container=0;dropTarget=0;collapsible=0;recursiveResize=0;outlineConnect=0;portConstraint=eastwest;newEdgeStyle={&quot;edgeStyle&quot;:&quot;elbowEdgeStyle&quot;,&quot;elbow&quot;:&quot;vertical&quot;,&quot;curved&quot;:0,&quot;rounded&quot;:0};" vertex="1" parent="1">
          <mxGeometry x="200" y="30" width="110" height="560" as="geometry" />
        </mxCell>
        <mxCell id="eUDPr7Cqio48zAzTeAPv-9" value="" style="html=1;points=[];perimeter=orthogonalPerimeter;outlineConnect=0;targetShapes=umlLifeline;portConstraint=eastwest;newEdgeStyle={&quot;edgeStyle&quot;:&quot;elbowEdgeStyle&quot;,&quot;elbow&quot;:&quot;vertical&quot;,&quot;curved&quot;:0,&quot;rounded&quot;:0};" vertex="1" parent="eUDPr7Cqio48zAzTeAPv-8">
          <mxGeometry x="45" y="65" width="22" height="455" as="geometry" />
        </mxCell>
        <mxCell id="eUDPr7Cqio48zAzTeAPv-13" value="" style="html=1;points=[];perimeter=orthogonalPerimeter;outlineConnect=0;targetShapes=umlLifeline;portConstraint=eastwest;newEdgeStyle={&quot;edgeStyle&quot;:&quot;elbowEdgeStyle&quot;,&quot;elbow&quot;:&quot;vertical&quot;,&quot;curved&quot;:0,&quot;rounded&quot;:0};" vertex="1" parent="eUDPr7Cqio48zAzTeAPv-8">
          <mxGeometry x="62" y="140" width="10" height="40" as="geometry" />
        </mxCell>
        <mxCell id="eUDPr7Cqio48zAzTeAPv-14" value="3. onDescendant&lt;br&gt;OrientationChanged" style="html=1;align=left;spacingLeft=2;endArrow=block;rounded=0;edgeStyle=orthogonalEdgeStyle;curved=0;rounded=0;" edge="1" target="eUDPr7Cqio48zAzTeAPv-13" parent="eUDPr7Cqio48zAzTeAPv-8">
          <mxGeometry relative="1" as="geometry">
            <mxPoint x="67" y="120" as="sourcePoint" />
            <Array as="points">
              <mxPoint x="97" y="150" />
            </Array>
          </mxGeometry>
        </mxCell>
        <mxCell id="eUDPr7Cqio48zAzTeAPv-11" value="2. setOrientation" style="html=1;verticalAlign=bottom;endArrow=block;edgeStyle=elbowEdgeStyle;elbow=vertical;curved=0;rounded=0;" edge="1" parent="1">
          <mxGeometry width="80" relative="1" as="geometry">
            <mxPoint x="140" y="140" as="sourcePoint" />
            <mxPoint x="240" y="140" as="targetPoint" />
            <mxPoint as="offset" />
          </mxGeometry>
        </mxCell>
        <mxCell id="eUDPr7Cqio48zAzTeAPv-15" value="Task" style="shape=umlLifeline;perimeter=lifelinePerimeter;whiteSpace=wrap;html=1;container=0;dropTarget=0;collapsible=0;recursiveResize=0;outlineConnect=0;portConstraint=eastwest;newEdgeStyle={&quot;edgeStyle&quot;:&quot;elbowEdgeStyle&quot;,&quot;elbow&quot;:&quot;vertical&quot;,&quot;curved&quot;:0,&quot;rounded&quot;:0};" vertex="1" parent="1">
          <mxGeometry x="370" y="30" width="110" height="540" as="geometry" />
        </mxCell>
        <mxCell id="eUDPr7Cqio48zAzTeAPv-16" value="" style="html=1;points=[];perimeter=orthogonalPerimeter;outlineConnect=0;targetShapes=umlLifeline;portConstraint=eastwest;newEdgeStyle={&quot;edgeStyle&quot;:&quot;elbowEdgeStyle&quot;,&quot;elbow&quot;:&quot;vertical&quot;,&quot;curved&quot;:0,&quot;rounded&quot;:0};" vertex="1" parent="eUDPr7Cqio48zAzTeAPv-15">
          <mxGeometry x="45" y="65" width="22" height="190" as="geometry" />
        </mxCell>
        <mxCell id="eUDPr7Cqio48zAzTeAPv-19" value="4. onDescendant&lt;br style=&quot;border-color: var(--border-color); text-align: left;&quot;&gt;&lt;span style=&quot;text-align: left;&quot;&gt;OrientationChanged&lt;/span&gt;" style="html=1;verticalAlign=bottom;endArrow=block;edgeStyle=elbowEdgeStyle;elbow=vertical;curved=0;rounded=0;" edge="1" parent="1">
          <mxGeometry x="0.0048" width="80" relative="1" as="geometry">
            <mxPoint x="270" y="230" as="sourcePoint" />
            <mxPoint x="410" y="230" as="targetPoint" />
            <mxPoint as="offset" />
          </mxGeometry>
        </mxCell>
        <mxCell id="eUDPr7Cqio48zAzTeAPv-20" value="DisplayArea" style="shape=umlLifeline;perimeter=lifelinePerimeter;whiteSpace=wrap;html=1;container=0;dropTarget=0;collapsible=0;recursiveResize=0;outlineConnect=0;portConstraint=eastwest;newEdgeStyle={&quot;edgeStyle&quot;:&quot;elbowEdgeStyle&quot;,&quot;elbow&quot;:&quot;vertical&quot;,&quot;curved&quot;:0,&quot;rounded&quot;:0};" vertex="1" parent="1">
          <mxGeometry x="490" y="30" width="110" height="540" as="geometry" />
        </mxCell>
        <mxCell id="eUDPr7Cqio48zAzTeAPv-21" value="" style="html=1;points=[];perimeter=orthogonalPerimeter;outlineConnect=0;targetShapes=umlLifeline;portConstraint=eastwest;newEdgeStyle={&quot;edgeStyle&quot;:&quot;elbowEdgeStyle&quot;,&quot;elbow&quot;:&quot;vertical&quot;,&quot;curved&quot;:0,&quot;rounded&quot;:0};" vertex="1" parent="eUDPr7Cqio48zAzTeAPv-20">
          <mxGeometry x="45" y="65" width="22" height="190" as="geometry" />
        </mxCell>
        <mxCell id="eUDPr7Cqio48zAzTeAPv-22" value="&lt;font style=&quot;font-size: 10px;&quot;&gt;5. onDescendant&lt;br style=&quot;border-color: var(--border-color); text-align: left;&quot;&gt;&lt;span style=&quot;text-align: left;&quot;&gt;OrientationChanged&lt;/span&gt;&lt;/font&gt;" style="html=1;verticalAlign=bottom;endArrow=block;edgeStyle=elbowEdgeStyle;elbow=vertical;curved=0;rounded=0;" edge="1" parent="1">
          <mxGeometry x="0.0088" width="80" relative="1" as="geometry">
            <mxPoint x="440" y="250.24" as="sourcePoint" />
            <mxPoint x="530" y="250" as="targetPoint" />
            <mxPoint as="offset" />
          </mxGeometry>
        </mxCell>
        <mxCell id="eUDPr7Cqio48zAzTeAPv-23" value="DisplayContent" style="shape=umlLifeline;perimeter=lifelinePerimeter;whiteSpace=wrap;html=1;container=0;dropTarget=0;collapsible=0;recursiveResize=0;outlineConnect=0;portConstraint=eastwest;newEdgeStyle={&quot;edgeStyle&quot;:&quot;elbowEdgeStyle&quot;,&quot;elbow&quot;:&quot;vertical&quot;,&quot;curved&quot;:0,&quot;rounded&quot;:0};participant=label;" vertex="1" parent="1">
          <mxGeometry x="610" y="30" width="110" height="960" as="geometry" />
        </mxCell>
        <mxCell id="eUDPr7Cqio48zAzTeAPv-24" value="" style="html=1;points=[];perimeter=orthogonalPerimeter;outlineConnect=0;targetShapes=umlLifeline;portConstraint=eastwest;newEdgeStyle={&quot;edgeStyle&quot;:&quot;elbowEdgeStyle&quot;,&quot;elbow&quot;:&quot;vertical&quot;,&quot;curved&quot;:0,&quot;rounded&quot;:0};" vertex="1" parent="eUDPr7Cqio48zAzTeAPv-23">
          <mxGeometry x="45" y="65" width="22" height="845" as="geometry" />
        </mxCell>
        <mxCell id="eUDPr7Cqio48zAzTeAPv-27" value="" style="html=1;points=[];perimeter=orthogonalPerimeter;outlineConnect=0;targetShapes=umlLifeline;portConstraint=eastwest;newEdgeStyle={&quot;edgeStyle&quot;:&quot;elbowEdgeStyle&quot;,&quot;elbow&quot;:&quot;vertical&quot;,&quot;curved&quot;:0,&quot;rounded&quot;:0};" vertex="1" parent="eUDPr7Cqio48zAzTeAPv-23">
          <mxGeometry x="62" y="275" width="10" height="40" as="geometry" />
        </mxCell>
        <mxCell id="eUDPr7Cqio48zAzTeAPv-28" value="7. update&lt;br&gt;Orientation" style="html=1;align=left;spacingLeft=2;endArrow=block;rounded=0;edgeStyle=orthogonalEdgeStyle;curved=0;rounded=0;" edge="1" target="eUDPr7Cqio48zAzTeAPv-27" parent="eUDPr7Cqio48zAzTeAPv-23">
          <mxGeometry relative="1" as="geometry">
            <mxPoint x="67" y="255" as="sourcePoint" />
            <Array as="points">
              <mxPoint x="97" y="285" />
            </Array>
          </mxGeometry>
        </mxCell>
        <mxCell id="eUDPr7Cqio48zAzTeAPv-29" value="" style="html=1;points=[];perimeter=orthogonalPerimeter;outlineConnect=0;targetShapes=umlLifeline;portConstraint=eastwest;newEdgeStyle={&quot;edgeStyle&quot;:&quot;elbowEdgeStyle&quot;,&quot;elbow&quot;:&quot;vertical&quot;,&quot;curved&quot;:0,&quot;rounded&quot;:0};" vertex="1" parent="eUDPr7Cqio48zAzTeAPv-23">
          <mxGeometry x="62" y="342" width="10" height="40" as="geometry" />
        </mxCell>
        <mxCell id="eUDPr7Cqio48zAzTeAPv-30" value="8. update&lt;br&gt;Orientation" style="html=1;align=left;spacingLeft=2;endArrow=block;rounded=0;edgeStyle=orthogonalEdgeStyle;curved=0;rounded=0;" edge="1" target="eUDPr7Cqio48zAzTeAPv-29" parent="eUDPr7Cqio48zAzTeAPv-23">
          <mxGeometry relative="1" as="geometry">
            <mxPoint x="67" y="322" as="sourcePoint" />
            <Array as="points">
              <mxPoint x="97" y="352" />
            </Array>
          </mxGeometry>
        </mxCell>
        <mxCell id="eUDPr7Cqio48zAzTeAPv-31" value="" style="html=1;points=[];perimeter=orthogonalPerimeter;outlineConnect=0;targetShapes=umlLifeline;portConstraint=eastwest;newEdgeStyle={&quot;edgeStyle&quot;:&quot;elbowEdgeStyle&quot;,&quot;elbow&quot;:&quot;vertical&quot;,&quot;curved&quot;:0,&quot;rounded&quot;:0};" vertex="1" parent="eUDPr7Cqio48zAzTeAPv-23">
          <mxGeometry x="62" y="413" width="10" height="40" as="geometry" />
        </mxCell>
        <mxCell id="eUDPr7Cqio48zAzTeAPv-32" value="9. get&lt;br&gt;Orientation" style="html=1;align=left;spacingLeft=2;endArrow=block;rounded=0;edgeStyle=orthogonalEdgeStyle;curved=0;rounded=0;" edge="1" target="eUDPr7Cqio48zAzTeAPv-31" parent="eUDPr7Cqio48zAzTeAPv-23">
          <mxGeometry relative="1" as="geometry">
            <mxPoint x="67" y="393" as="sourcePoint" />
            <Array as="points">
              <mxPoint x="97" y="423" />
            </Array>
          </mxGeometry>
        </mxCell>
        <mxCell id="eUDPr7Cqio48zAzTeAPv-25" value="&lt;font style=&quot;font-size: 10px;&quot;&gt;6. onDescendant&lt;br style=&quot;border-color: var(--border-color); text-align: left;&quot;&gt;&lt;span style=&quot;text-align: left;&quot;&gt;OrientationChanged&lt;/span&gt;&lt;/font&gt;" style="html=1;verticalAlign=bottom;endArrow=block;edgeStyle=elbowEdgeStyle;elbow=vertical;curved=0;rounded=0;" edge="1" parent="1">
          <mxGeometry x="0.0121" width="80" relative="1" as="geometry">
            <mxPoint x="561" y="265.24" as="sourcePoint" />
            <mxPoint x="651" y="265" as="targetPoint" />
            <mxPoint as="offset" />
          </mxGeometry>
        </mxCell>
        <mxCell id="eUDPr7Cqio48zAzTeAPv-33" value="10. getOrientation" style="html=1;verticalAlign=bottom;endArrow=block;edgeStyle=elbowEdgeStyle;elbow=vertical;curved=0;rounded=0;" edge="1" parent="1">
          <mxGeometry width="80" relative="1" as="geometry">
            <mxPoint x="650" y="500" as="sourcePoint" />
            <mxPoint x="270" y="500" as="targetPoint" />
            <mxPoint as="offset" />
          </mxGeometry>
        </mxCell>
        <mxCell id="eUDPr7Cqio48zAzTeAPv-34" value="DisplayRotation" style="shape=umlLifeline;perimeter=lifelinePerimeter;whiteSpace=wrap;html=1;container=0;dropTarget=0;collapsible=0;recursiveResize=0;outlineConnect=0;portConstraint=eastwest;newEdgeStyle={&quot;edgeStyle&quot;:&quot;elbowEdgeStyle&quot;,&quot;elbow&quot;:&quot;vertical&quot;,&quot;curved&quot;:0,&quot;rounded&quot;:0};participant=label;" vertex="1" parent="1">
          <mxGeometry x="753" y="30" width="110" height="860" as="geometry" />
        </mxCell>
        <mxCell id="eUDPr7Cqio48zAzTeAPv-35" value="" style="html=1;points=[];perimeter=orthogonalPerimeter;outlineConnect=0;targetShapes=umlLifeline;portConstraint=eastwest;newEdgeStyle={&quot;edgeStyle&quot;:&quot;elbowEdgeStyle&quot;,&quot;elbow&quot;:&quot;vertical&quot;,&quot;curved&quot;:0,&quot;rounded&quot;:0};" vertex="1" parent="eUDPr7Cqio48zAzTeAPv-34">
          <mxGeometry x="45" y="65" width="22" height="745" as="geometry" />
        </mxCell>
        <mxCell id="eUDPr7Cqio48zAzTeAPv-44" value="" style="html=1;points=[];perimeter=orthogonalPerimeter;outlineConnect=0;targetShapes=umlLifeline;portConstraint=eastwest;newEdgeStyle={&quot;edgeStyle&quot;:&quot;elbowEdgeStyle&quot;,&quot;elbow&quot;:&quot;vertical&quot;,&quot;curved&quot;:0,&quot;rounded&quot;:0};" vertex="1" parent="eUDPr7Cqio48zAzTeAPv-34">
          <mxGeometry x="62" y="520" width="10" height="40" as="geometry" />
        </mxCell>
        <mxCell id="eUDPr7Cqio48zAzTeAPv-45" value="11. updateRotation&lt;br&gt;Unchecked" style="html=1;align=left;spacingLeft=2;endArrow=block;rounded=0;edgeStyle=orthogonalEdgeStyle;curved=0;rounded=0;" edge="1" target="eUDPr7Cqio48zAzTeAPv-44" parent="eUDPr7Cqio48zAzTeAPv-34">
          <mxGeometry relative="1" as="geometry">
            <mxPoint x="67" y="500" as="sourcePoint" />
            <Array as="points">
              <mxPoint x="97" y="530" />
            </Array>
          </mxGeometry>
        </mxCell>
        <mxCell id="eUDPr7Cqio48zAzTeAPv-46" value="" style="html=1;points=[];perimeter=orthogonalPerimeter;outlineConnect=0;targetShapes=umlLifeline;portConstraint=eastwest;newEdgeStyle={&quot;edgeStyle&quot;:&quot;elbowEdgeStyle&quot;,&quot;elbow&quot;:&quot;vertical&quot;,&quot;curved&quot;:0,&quot;rounded&quot;:0};" vertex="1" parent="eUDPr7Cqio48zAzTeAPv-34">
          <mxGeometry x="62" y="590" width="10" height="40" as="geometry" />
        </mxCell>
        <mxCell id="eUDPr7Cqio48zAzTeAPv-47" value="12. rotationFor&lt;br&gt;Orientation" style="html=1;align=left;spacingLeft=2;endArrow=block;rounded=0;edgeStyle=orthogonalEdgeStyle;curved=0;rounded=0;" edge="1" target="eUDPr7Cqio48zAzTeAPv-46" parent="eUDPr7Cqio48zAzTeAPv-34">
          <mxGeometry relative="1" as="geometry">
            <mxPoint x="67" y="570" as="sourcePoint" />
            <Array as="points">
              <mxPoint x="97" y="600" />
            </Array>
          </mxGeometry>
        </mxCell>
        <mxCell id="eUDPr7Cqio48zAzTeAPv-48" value="" style="html=1;points=[];perimeter=orthogonalPerimeter;outlineConnect=0;targetShapes=umlLifeline;portConstraint=eastwest;newEdgeStyle={&quot;edgeStyle&quot;:&quot;elbowEdgeStyle&quot;,&quot;elbow&quot;:&quot;vertical&quot;,&quot;curved&quot;:0,&quot;rounded&quot;:0};" vertex="1" parent="eUDPr7Cqio48zAzTeAPv-34">
          <mxGeometry x="62" y="660" width="10" height="40" as="geometry" />
        </mxCell>
        <mxCell id="eUDPr7Cqio48zAzTeAPv-49" value="13. startRemote&lt;br&gt;Rotation" style="html=1;align=left;spacingLeft=2;endArrow=block;rounded=0;edgeStyle=orthogonalEdgeStyle;curved=0;rounded=0;" edge="1" target="eUDPr7Cqio48zAzTeAPv-48" parent="eUDPr7Cqio48zAzTeAPv-34">
          <mxGeometry relative="1" as="geometry">
            <mxPoint x="67" y="640" as="sourcePoint" />
            <Array as="points">
              <mxPoint x="97" y="670" />
            </Array>
          </mxGeometry>
        </mxCell>
        <mxCell id="eUDPr7Cqio48zAzTeAPv-50" value="" style="html=1;points=[];perimeter=orthogonalPerimeter;outlineConnect=0;targetShapes=umlLifeline;portConstraint=eastwest;newEdgeStyle={&quot;edgeStyle&quot;:&quot;elbowEdgeStyle&quot;,&quot;elbow&quot;:&quot;vertical&quot;,&quot;curved&quot;:0,&quot;rounded&quot;:0};" vertex="1" parent="eUDPr7Cqio48zAzTeAPv-34">
          <mxGeometry x="62" y="730" width="10" height="40" as="geometry" />
        </mxCell>
        <mxCell id="eUDPr7Cqio48zAzTeAPv-51" value="14. continue&lt;br&gt;Rotation" style="html=1;align=left;spacingLeft=2;endArrow=block;rounded=0;edgeStyle=orthogonalEdgeStyle;curved=0;rounded=0;" edge="1" target="eUDPr7Cqio48zAzTeAPv-50" parent="eUDPr7Cqio48zAzTeAPv-34">
          <mxGeometry relative="1" as="geometry">
            <mxPoint x="67" y="710" as="sourcePoint" />
            <Array as="points">
              <mxPoint x="97" y="740" />
            </Array>
          </mxGeometry>
        </mxCell>
        <mxCell id="eUDPr7Cqio48zAzTeAPv-43" value="10. updateOrientation" style="html=1;verticalAlign=bottom;endArrow=block;edgeStyle=elbowEdgeStyle;elbow=vertical;curved=0;rounded=0;" edge="1" parent="1" target="eUDPr7Cqio48zAzTeAPv-35">
          <mxGeometry width="80" relative="1" as="geometry">
            <mxPoint x="680" y="520" as="sourcePoint" />
            <mxPoint x="790" y="520" as="targetPoint" />
          </mxGeometry>
        </mxCell>
        <mxCell id="eUDPr7Cqio48zAzTeAPv-52" value="Window&lt;br&gt;SurfacePlacer" style="shape=umlLifeline;perimeter=lifelinePerimeter;whiteSpace=wrap;html=1;container=0;dropTarget=0;collapsible=0;recursiveResize=0;outlineConnect=0;portConstraint=eastwest;newEdgeStyle={&quot;edgeStyle&quot;:&quot;elbowEdgeStyle&quot;,&quot;elbow&quot;:&quot;vertical&quot;,&quot;curved&quot;:0,&quot;rounded&quot;:0};" vertex="1" parent="1">
          <mxGeometry x="920" y="30" width="110" height="1170" as="geometry" />
        </mxCell>
        <mxCell id="eUDPr7Cqio48zAzTeAPv-53" value="" style="html=1;points=[];perimeter=orthogonalPerimeter;outlineConnect=0;targetShapes=umlLifeline;portConstraint=eastwest;newEdgeStyle={&quot;edgeStyle&quot;:&quot;elbowEdgeStyle&quot;,&quot;elbow&quot;:&quot;vertical&quot;,&quot;curved&quot;:0,&quot;rounded&quot;:0};" vertex="1" parent="eUDPr7Cqio48zAzTeAPv-52">
          <mxGeometry x="45" y="62" width="22" height="1008" as="geometry" />
        </mxCell>
        <mxCell id="eUDPr7Cqio48zAzTeAPv-55" value="" style="html=1;points=[];perimeter=orthogonalPerimeter;outlineConnect=0;targetShapes=umlLifeline;portConstraint=eastwest;newEdgeStyle={&quot;edgeStyle&quot;:&quot;elbowEdgeStyle&quot;,&quot;elbow&quot;:&quot;vertical&quot;,&quot;curved&quot;:0,&quot;rounded&quot;:0};" vertex="1" parent="eUDPr7Cqio48zAzTeAPv-52">
          <mxGeometry x="-248" y="820" width="10" height="40" as="geometry" />
        </mxCell>
        <mxCell id="eUDPr7Cqio48zAzTeAPv-56" value="16. updateDisplay&lt;br&gt;OverrideConfiguration&lt;br&gt;Locked" style="html=1;align=left;spacingLeft=2;endArrow=block;rounded=0;edgeStyle=orthogonalEdgeStyle;curved=0;rounded=0;" edge="1" target="eUDPr7Cqio48zAzTeAPv-55" parent="eUDPr7Cqio48zAzTeAPv-52">
          <mxGeometry relative="1" as="geometry">
            <mxPoint x="-243" y="800" as="sourcePoint" />
            <Array as="points">
              <mxPoint x="-213" y="830" />
            </Array>
          </mxGeometry>
        </mxCell>
        <mxCell id="eUDPr7Cqio48zAzTeAPv-58" value="" style="html=1;points=[];perimeter=orthogonalPerimeter;outlineConnect=0;targetShapes=umlLifeline;portConstraint=eastwest;newEdgeStyle={&quot;edgeStyle&quot;:&quot;elbowEdgeStyle&quot;,&quot;elbow&quot;:&quot;vertical&quot;,&quot;curved&quot;:0,&quot;rounded&quot;:0};" vertex="1" parent="eUDPr7Cqio48zAzTeAPv-52">
          <mxGeometry x="62" y="910" width="10" height="40" as="geometry" />
        </mxCell>
        <mxCell id="eUDPr7Cqio48zAzTeAPv-59" value="18.perform&lt;br&gt;SurfacePlacement" style="html=1;align=left;spacingLeft=2;endArrow=block;rounded=0;edgeStyle=orthogonalEdgeStyle;curved=0;rounded=0;" edge="1" target="eUDPr7Cqio48zAzTeAPv-58" parent="eUDPr7Cqio48zAzTeAPv-52">
          <mxGeometry relative="1" as="geometry">
            <mxPoint x="67" y="890" as="sourcePoint" />
            <Array as="points">
              <mxPoint x="97" y="920" />
            </Array>
          </mxGeometry>
        </mxCell>
        <mxCell id="eUDPr7Cqio48zAzTeAPv-60" value="" style="html=1;points=[];perimeter=orthogonalPerimeter;outlineConnect=0;targetShapes=umlLifeline;portConstraint=eastwest;newEdgeStyle={&quot;edgeStyle&quot;:&quot;elbowEdgeStyle&quot;,&quot;elbow&quot;:&quot;vertical&quot;,&quot;curved&quot;:0,&quot;rounded&quot;:0};" vertex="1" parent="eUDPr7Cqio48zAzTeAPv-52">
          <mxGeometry x="62" y="980" width="10" height="40" as="geometry" />
        </mxCell>
        <mxCell id="eUDPr7Cqio48zAzTeAPv-61" value="19. performSurface&lt;br&gt;PlacementLoop" style="html=1;align=left;spacingLeft=2;endArrow=block;rounded=0;edgeStyle=orthogonalEdgeStyle;curved=0;rounded=0;" edge="1" target="eUDPr7Cqio48zAzTeAPv-60" parent="eUDPr7Cqio48zAzTeAPv-52">
          <mxGeometry relative="1" as="geometry">
            <mxPoint x="67" y="960" as="sourcePoint" />
            <Array as="points">
              <mxPoint x="97" y="990" />
            </Array>
          </mxGeometry>
        </mxCell>
        <mxCell id="eUDPr7Cqio48zAzTeAPv-54" value="15. sendNew&lt;br&gt;Configuration" style="html=1;verticalAlign=bottom;endArrow=block;edgeStyle=elbowEdgeStyle;elbow=vertical;curved=0;rounded=0;" edge="1" parent="1">
          <mxGeometry width="80" relative="1" as="geometry">
            <mxPoint x="798" y="810" as="sourcePoint" />
            <mxPoint x="678" y="810" as="targetPoint" />
          </mxGeometry>
        </mxCell>
        <mxCell id="eUDPr7Cqio48zAzTeAPv-57" value="17.performSurfacePlacement" style="html=1;verticalAlign=bottom;endArrow=block;edgeStyle=elbowEdgeStyle;elbow=vertical;curved=0;rounded=0;" edge="1" parent="1">
          <mxGeometry width="80" relative="1" as="geometry">
            <mxPoint x="680" y="910" as="sourcePoint" />
            <mxPoint x="960" y="910" as="targetPoint" />
          </mxGeometry>
        </mxCell>
        <mxCell id="eUDPr7Cqio48zAzTeAPv-62" value="Root&lt;br&gt;WindowContainer" style="shape=umlLifeline;perimeter=lifelinePerimeter;whiteSpace=wrap;html=1;container=0;dropTarget=0;collapsible=0;recursiveResize=0;outlineConnect=0;portConstraint=eastwest;newEdgeStyle={&quot;edgeStyle&quot;:&quot;elbowEdgeStyle&quot;,&quot;elbow&quot;:&quot;vertical&quot;,&quot;curved&quot;:0,&quot;rounded&quot;:0};" vertex="1" parent="1">
          <mxGeometry x="1087" y="30" width="110" height="1230" as="geometry" />
        </mxCell>
        <mxCell id="eUDPr7Cqio48zAzTeAPv-63" value="" style="html=1;points=[];perimeter=orthogonalPerimeter;outlineConnect=0;targetShapes=umlLifeline;portConstraint=eastwest;newEdgeStyle={&quot;edgeStyle&quot;:&quot;elbowEdgeStyle&quot;,&quot;elbow&quot;:&quot;vertical&quot;,&quot;curved&quot;:0,&quot;rounded&quot;:0};" vertex="1" parent="eUDPr7Cqio48zAzTeAPv-62">
          <mxGeometry x="45" y="62" width="22" height="1088" as="geometry" />
        </mxCell>
        <mxCell id="eUDPr7Cqio48zAzTeAPv-64" value="" style="html=1;points=[];perimeter=orthogonalPerimeter;outlineConnect=0;targetShapes=umlLifeline;portConstraint=eastwest;newEdgeStyle={&quot;edgeStyle&quot;:&quot;elbowEdgeStyle&quot;,&quot;elbow&quot;:&quot;vertical&quot;,&quot;curved&quot;:0,&quot;rounded&quot;:0};" vertex="1" parent="eUDPr7Cqio48zAzTeAPv-62">
          <mxGeometry x="-248" y="820" width="10" height="40" as="geometry" />
        </mxCell>
        <mxCell id="eUDPr7Cqio48zAzTeAPv-65" value="16. updateDisplay&lt;br&gt;OverrideConfiguration&lt;br&gt;Locked" style="html=1;align=left;spacingLeft=2;endArrow=block;rounded=0;edgeStyle=orthogonalEdgeStyle;curved=0;rounded=0;" edge="1" parent="eUDPr7Cqio48zAzTeAPv-62" target="eUDPr7Cqio48zAzTeAPv-64">
          <mxGeometry relative="1" as="geometry">
            <mxPoint x="-243" y="800" as="sourcePoint" />
            <Array as="points">
              <mxPoint x="-213" y="830" />
            </Array>
          </mxGeometry>
        </mxCell>
        <mxCell id="eUDPr7Cqio48zAzTeAPv-71" value="" style="html=1;points=[];perimeter=orthogonalPerimeter;outlineConnect=0;targetShapes=umlLifeline;portConstraint=eastwest;newEdgeStyle={&quot;edgeStyle&quot;:&quot;elbowEdgeStyle&quot;,&quot;elbow&quot;:&quot;vertical&quot;,&quot;curved&quot;:0,&quot;rounded&quot;:0};" vertex="1" parent="eUDPr7Cqio48zAzTeAPv-62">
          <mxGeometry x="62" y="1070" width="10" height="40" as="geometry" />
        </mxCell>
        <mxCell id="eUDPr7Cqio48zAzTeAPv-72" value="21. applySurface&lt;br&gt;ChangesTransaction" style="html=1;align=left;spacingLeft=2;endArrow=block;rounded=0;edgeStyle=orthogonalEdgeStyle;curved=0;rounded=0;" edge="1" target="eUDPr7Cqio48zAzTeAPv-71" parent="eUDPr7Cqio48zAzTeAPv-62">
          <mxGeometry relative="1" as="geometry">
            <mxPoint x="67" y="1050" as="sourcePoint" />
            <Array as="points">
              <mxPoint x="97" y="1080" />
            </Array>
          </mxGeometry>
        </mxCell>
        <mxCell id="eUDPr7Cqio48zAzTeAPv-70" value="20. perform&lt;br style=&quot;text-align: left;&quot;&gt;&lt;span style=&quot;text-align: left;&quot;&gt;SurfacePlacement&lt;/span&gt;" style="html=1;verticalAlign=bottom;endArrow=block;edgeStyle=elbowEdgeStyle;elbow=vertical;curved=0;rounded=0;" edge="1" parent="1">
          <mxGeometry width="80" relative="1" as="geometry">
            <mxPoint x="990" y="1070" as="sourcePoint" />
            <mxPoint x="1130" y="1070" as="targetPoint" />
          </mxGeometry>
        </mxCell>
        <mxCell id="eUDPr7Cqio48zAzTeAPv-73" value="DisplayManager&lt;br&gt;Service" style="shape=umlLifeline;perimeter=lifelinePerimeter;whiteSpace=wrap;html=1;container=0;dropTarget=0;collapsible=0;recursiveResize=0;outlineConnect=0;portConstraint=eastwest;newEdgeStyle={&quot;edgeStyle&quot;:&quot;elbowEdgeStyle&quot;,&quot;elbow&quot;:&quot;vertical&quot;,&quot;curved&quot;:0,&quot;rounded&quot;:0};" vertex="1" parent="1">
          <mxGeometry x="1258" y="30" width="110" height="1500" as="geometry" />
        </mxCell>
        <mxCell id="eUDPr7Cqio48zAzTeAPv-74" value="" style="html=1;points=[];perimeter=orthogonalPerimeter;outlineConnect=0;targetShapes=umlLifeline;portConstraint=eastwest;newEdgeStyle={&quot;edgeStyle&quot;:&quot;elbowEdgeStyle&quot;,&quot;elbow&quot;:&quot;vertical&quot;,&quot;curved&quot;:0,&quot;rounded&quot;:0};" vertex="1" parent="eUDPr7Cqio48zAzTeAPv-73">
          <mxGeometry x="45" y="62" width="22" height="1408" as="geometry" />
        </mxCell>
        <mxCell id="eUDPr7Cqio48zAzTeAPv-75" value="" style="html=1;points=[];perimeter=orthogonalPerimeter;outlineConnect=0;targetShapes=umlLifeline;portConstraint=eastwest;newEdgeStyle={&quot;edgeStyle&quot;:&quot;elbowEdgeStyle&quot;,&quot;elbow&quot;:&quot;vertical&quot;,&quot;curved&quot;:0,&quot;rounded&quot;:0};" vertex="1" parent="eUDPr7Cqio48zAzTeAPv-73">
          <mxGeometry x="-248" y="820" width="10" height="40" as="geometry" />
        </mxCell>
        <mxCell id="eUDPr7Cqio48zAzTeAPv-76" value="16. updateDisplay&lt;br&gt;OverrideConfiguration&lt;br&gt;Locked" style="html=1;align=left;spacingLeft=2;endArrow=block;rounded=0;edgeStyle=orthogonalEdgeStyle;curved=0;rounded=0;" edge="1" parent="eUDPr7Cqio48zAzTeAPv-73" target="eUDPr7Cqio48zAzTeAPv-75">
          <mxGeometry relative="1" as="geometry">
            <mxPoint x="-243" y="800" as="sourcePoint" />
            <Array as="points">
              <mxPoint x="-213" y="830" />
            </Array>
          </mxGeometry>
        </mxCell>
        <mxCell id="eUDPr7Cqio48zAzTeAPv-80" value="" style="html=1;points=[];perimeter=orthogonalPerimeter;outlineConnect=0;targetShapes=umlLifeline;portConstraint=eastwest;newEdgeStyle={&quot;edgeStyle&quot;:&quot;elbowEdgeStyle&quot;,&quot;elbow&quot;:&quot;vertical&quot;,&quot;curved&quot;:0,&quot;rounded&quot;:0};" vertex="1" parent="eUDPr7Cqio48zAzTeAPv-73">
          <mxGeometry x="62" y="1159" width="10" height="40" as="geometry" />
        </mxCell>
        <mxCell id="eUDPr7Cqio48zAzTeAPv-81" value="23. perform&lt;br&gt;TraversalInternal" style="html=1;align=left;spacingLeft=2;endArrow=block;rounded=0;edgeStyle=orthogonalEdgeStyle;curved=0;rounded=0;" edge="1" target="eUDPr7Cqio48zAzTeAPv-80" parent="eUDPr7Cqio48zAzTeAPv-73">
          <mxGeometry relative="1" as="geometry">
            <mxPoint x="67" y="1139" as="sourcePoint" />
            <Array as="points">
              <mxPoint x="97" y="1169" />
            </Array>
          </mxGeometry>
        </mxCell>
        <mxCell id="eUDPr7Cqio48zAzTeAPv-82" value="" style="html=1;points=[];perimeter=orthogonalPerimeter;outlineConnect=0;targetShapes=umlLifeline;portConstraint=eastwest;newEdgeStyle={&quot;edgeStyle&quot;:&quot;elbowEdgeStyle&quot;,&quot;elbow&quot;:&quot;vertical&quot;,&quot;curved&quot;:0,&quot;rounded&quot;:0};" vertex="1" parent="eUDPr7Cqio48zAzTeAPv-73">
          <mxGeometry x="62" y="1230" width="10" height="40" as="geometry" />
        </mxCell>
        <mxCell id="eUDPr7Cqio48zAzTeAPv-83" value="24. perform&lt;br&gt;TraversalLocked" style="html=1;align=left;spacingLeft=2;endArrow=block;rounded=0;edgeStyle=orthogonalEdgeStyle;curved=0;rounded=0;" edge="1" target="eUDPr7Cqio48zAzTeAPv-82" parent="eUDPr7Cqio48zAzTeAPv-73">
          <mxGeometry relative="1" as="geometry">
            <mxPoint x="67" y="1210" as="sourcePoint" />
            <Array as="points">
              <mxPoint x="97" y="1240" />
            </Array>
          </mxGeometry>
        </mxCell>
        <mxCell id="eUDPr7Cqio48zAzTeAPv-84" value="" style="html=1;points=[];perimeter=orthogonalPerimeter;outlineConnect=0;targetShapes=umlLifeline;portConstraint=eastwest;newEdgeStyle={&quot;edgeStyle&quot;:&quot;elbowEdgeStyle&quot;,&quot;elbow&quot;:&quot;vertical&quot;,&quot;curved&quot;:0,&quot;rounded&quot;:0};" vertex="1" parent="eUDPr7Cqio48zAzTeAPv-73">
          <mxGeometry x="62" y="1300" width="10" height="40" as="geometry" />
        </mxCell>
        <mxCell id="eUDPr7Cqio48zAzTeAPv-85" value="25. configure&lt;br&gt;DisplayLocked" style="html=1;align=left;spacingLeft=2;endArrow=block;rounded=0;edgeStyle=orthogonalEdgeStyle;curved=0;rounded=0;" edge="1" target="eUDPr7Cqio48zAzTeAPv-84" parent="eUDPr7Cqio48zAzTeAPv-73">
          <mxGeometry relative="1" as="geometry">
            <mxPoint x="67" y="1280" as="sourcePoint" />
            <Array as="points">
              <mxPoint x="97" y="1310" />
            </Array>
          </mxGeometry>
        </mxCell>
        <mxCell id="eUDPr7Cqio48zAzTeAPv-79" value="22. performTraversal" style="html=1;verticalAlign=bottom;endArrow=block;edgeStyle=elbowEdgeStyle;elbow=vertical;curved=0;rounded=0;" edge="1" parent="1">
          <mxGeometry width="80" relative="1" as="geometry">
            <mxPoint x="1156" y="1157" as="sourcePoint" />
            <mxPoint x="1300" y="1157" as="targetPoint" />
          </mxGeometry>
        </mxCell>
        <mxCell id="eUDPr7Cqio48zAzTeAPv-86" value="OplusMirageDisplay&lt;br&gt;ManagerService" style="shape=umlLifeline;perimeter=lifelinePerimeter;whiteSpace=wrap;html=1;container=0;dropTarget=0;collapsible=0;recursiveResize=0;outlineConnect=0;portConstraint=eastwest;newEdgeStyle={&quot;edgeStyle&quot;:&quot;elbowEdgeStyle&quot;,&quot;elbow&quot;:&quot;vertical&quot;,&quot;curved&quot;:0,&quot;rounded&quot;:0};" vertex="1" parent="1">
          <mxGeometry x="1419" y="30" width="110" height="1450" as="geometry" />
        </mxCell>
        <mxCell id="eUDPr7Cqio48zAzTeAPv-87" value="" style="html=1;points=[];perimeter=orthogonalPerimeter;outlineConnect=0;targetShapes=umlLifeline;portConstraint=eastwest;newEdgeStyle={&quot;edgeStyle&quot;:&quot;elbowEdgeStyle&quot;,&quot;elbow&quot;:&quot;vertical&quot;,&quot;curved&quot;:0,&quot;rounded&quot;:0};" vertex="1" parent="eUDPr7Cqio48zAzTeAPv-86">
          <mxGeometry x="45" y="62" width="22" height="1358" as="geometry" />
        </mxCell>
        <mxCell id="eUDPr7Cqio48zAzTeAPv-88" value="" style="html=1;points=[];perimeter=orthogonalPerimeter;outlineConnect=0;targetShapes=umlLifeline;portConstraint=eastwest;newEdgeStyle={&quot;edgeStyle&quot;:&quot;elbowEdgeStyle&quot;,&quot;elbow&quot;:&quot;vertical&quot;,&quot;curved&quot;:0,&quot;rounded&quot;:0};" vertex="1" parent="eUDPr7Cqio48zAzTeAPv-86">
          <mxGeometry x="-248" y="820" width="10" height="40" as="geometry" />
        </mxCell>
        <mxCell id="eUDPr7Cqio48zAzTeAPv-89" value="16. updateDisplay&lt;br&gt;OverrideConfiguration&lt;br&gt;Locked" style="html=1;align=left;spacingLeft=2;endArrow=block;rounded=0;edgeStyle=orthogonalEdgeStyle;curved=0;rounded=0;" edge="1" parent="eUDPr7Cqio48zAzTeAPv-86" target="eUDPr7Cqio48zAzTeAPv-88">
          <mxGeometry relative="1" as="geometry">
            <mxPoint x="-243" y="800" as="sourcePoint" />
            <Array as="points">
              <mxPoint x="-213" y="830" />
            </Array>
          </mxGeometry>
        </mxCell>
        <mxCell id="eUDPr7Cqio48zAzTeAPv-96" value="26. getBondDisplayId&lt;br&gt;Locked" style="html=1;verticalAlign=bottom;endArrow=block;edgeStyle=elbowEdgeStyle;elbow=vertical;curved=0;rounded=0;" edge="1" parent="1">
          <mxGeometry width="80" relative="1" as="geometry">
            <mxPoint x="1327" y="1390" as="sourcePoint" />
            <mxPoint x="1460" y="1390" as="targetPoint" />
          </mxGeometry>
        </mxCell>
        <mxCell id="eUDPr7Cqio48zAzTeAPv-97" value="boundDisplayId" style="html=1;verticalAlign=bottom;endArrow=open;dashed=1;endSize=8;edgeStyle=elbowEdgeStyle;elbow=vertical;curved=0;rounded=0;" edge="1" parent="1">
          <mxGeometry relative="1" as="geometry">
            <mxPoint x="1460" y="1420" as="sourcePoint" />
            <mxPoint x="1330" y="1420" as="targetPoint" />
          </mxGeometry>
        </mxCell>
        <mxCell id="eUDPr7Cqio48zAzTeAPv-98" value="LogicalDisplay" style="shape=umlLifeline;perimeter=lifelinePerimeter;whiteSpace=wrap;html=1;container=0;dropTarget=0;collapsible=0;recursiveResize=0;outlineConnect=0;portConstraint=eastwest;newEdgeStyle={&quot;edgeStyle&quot;:&quot;elbowEdgeStyle&quot;,&quot;elbow&quot;:&quot;vertical&quot;,&quot;curved&quot;:0,&quot;rounded&quot;:0};" vertex="1" parent="1">
          <mxGeometry x="1550" y="30" width="110" height="1590" as="geometry" />
        </mxCell>
        <mxCell id="eUDPr7Cqio48zAzTeAPv-99" value="" style="html=1;points=[];perimeter=orthogonalPerimeter;outlineConnect=0;targetShapes=umlLifeline;portConstraint=eastwest;newEdgeStyle={&quot;edgeStyle&quot;:&quot;elbowEdgeStyle&quot;,&quot;elbow&quot;:&quot;vertical&quot;,&quot;curved&quot;:0,&quot;rounded&quot;:0};" vertex="1" parent="eUDPr7Cqio48zAzTeAPv-98">
          <mxGeometry x="45" y="62" width="22" height="1478" as="geometry" />
        </mxCell>
        <mxCell id="eUDPr7Cqio48zAzTeAPv-100" value="" style="html=1;points=[];perimeter=orthogonalPerimeter;outlineConnect=0;targetShapes=umlLifeline;portConstraint=eastwest;newEdgeStyle={&quot;edgeStyle&quot;:&quot;elbowEdgeStyle&quot;,&quot;elbow&quot;:&quot;vertical&quot;,&quot;curved&quot;:0,&quot;rounded&quot;:0};" vertex="1" parent="eUDPr7Cqio48zAzTeAPv-98">
          <mxGeometry x="-248" y="820" width="10" height="40" as="geometry" />
        </mxCell>
        <mxCell id="eUDPr7Cqio48zAzTeAPv-101" value="16. updateDisplay&lt;br&gt;OverrideConfiguration&lt;br&gt;Locked" style="html=1;align=left;spacingLeft=2;endArrow=block;rounded=0;edgeStyle=orthogonalEdgeStyle;curved=0;rounded=0;" edge="1" parent="eUDPr7Cqio48zAzTeAPv-98" target="eUDPr7Cqio48zAzTeAPv-100">
          <mxGeometry relative="1" as="geometry">
            <mxPoint x="-243" y="800" as="sourcePoint" />
            <Array as="points">
              <mxPoint x="-213" y="830" />
            </Array>
          </mxGeometry>
        </mxCell>
        <mxCell id="eUDPr7Cqio48zAzTeAPv-103" value="" style="html=1;points=[];perimeter=orthogonalPerimeter;outlineConnect=0;targetShapes=umlLifeline;portConstraint=eastwest;newEdgeStyle={&quot;edgeStyle&quot;:&quot;elbowEdgeStyle&quot;,&quot;elbow&quot;:&quot;vertical&quot;,&quot;curved&quot;:0,&quot;rounded&quot;:0};" vertex="1" parent="eUDPr7Cqio48zAzTeAPv-98">
          <mxGeometry x="62" y="1480" width="10" height="40" as="geometry" />
        </mxCell>
        <mxCell id="eUDPr7Cqio48zAzTeAPv-104" value="28. getMasking&lt;br&gt;Insets" style="html=1;align=left;spacingLeft=2;endArrow=block;rounded=0;edgeStyle=orthogonalEdgeStyle;curved=0;rounded=0;" edge="1" target="eUDPr7Cqio48zAzTeAPv-103" parent="eUDPr7Cqio48zAzTeAPv-98">
          <mxGeometry relative="1" as="geometry">
            <mxPoint x="67" y="1460" as="sourcePoint" />
            <Array as="points">
              <mxPoint x="97" y="1490" />
            </Array>
          </mxGeometry>
        </mxCell>
        <mxCell id="eUDPr7Cqio48zAzTeAPv-102" value="27. configureDisplayLocked" style="html=1;verticalAlign=bottom;endArrow=block;edgeStyle=elbowEdgeStyle;elbow=vertical;curved=0;rounded=0;" edge="1" parent="1">
          <mxGeometry width="80" relative="1" as="geometry">
            <mxPoint x="1327" y="1480" as="sourcePoint" />
            <mxPoint x="1590" y="1480" as="targetPoint" />
          </mxGeometry>
        </mxCell>
      </root>
    </mxGraphModel>
  </diagram>
</mxfile>
